PathFileType	4	(X/Y/Z)	Patient4_TMGait_0pt2_03_right_06.trc.trc
DataRate	CameraRate	NumFrames	NumMarkers	Units	OrigDataRate	OrigDataStartFrame	OrigNumFrames
46.666666666667	46.666666666667	6	33	mm	46.666666666667	71	       141
Frame#	Time	Sacral			L.Shoulder			Chest			R.Shoulder			Neck			R.ASIS			L.ASIS			R.Thigh.Superior			R.Thigh.Lateral			R.Thigh.Inferior			R.Patella			L.Thigh.Superior			L.Thigh.Lateral			L.Thigh.Inferior			L.Patella			L.Shank.Superior			L.Shank.Lateral			L.Shank.Inferior			R.Shank.Superior			R.Shank.Lateral			R.Shank.Inferior			R.Heel			R.Midfoot.Superior			R.Midfoot.Lateral			R.Toe			L.Heel			L.Midfoot.Lateral			L.Midfoot.Superior			L.Toe			L.Elbow			L.Wrist			R.Elbow			R.Wrist			
		X1	Y1	Z1	X2	Y2	Z2	X3	Y3	Z3	X4	Y4	Z4	X5	Y5	Z5	X6	Y6	Z6	X7	Y7	Z7	X8	Y8	Z8	X9	Y9	Z9	X10	Y10	Z10	X11	Y11	Z11	X12	Y12	Z12	X13	Y13	Z13	X14	Y14	Z14	X15	Y15	Z15	X16	Y16	Z16	X17	Y17	Z17	X18	Y18	Z18	X19	Y19	Z19	X20	Y20	Z20	X21	Y21	Z21	X22	Y22	Z22	X23	Y23	Z23	X24	Y24	Z24	X25	Y25	Z25	X26	Y26	Z26	X27	Y27	Z27	X28	Y28	Z28	X29	Y29	Z29	X30	Y30	Z30	X31	Y31	Z31	X32	Y32	Z32	X33	Y33	Z33	

71	14.210000000000	803.025822714391	1004.155240534205	601.594539947708	948.154328011373	1433.538127063368	401.417904892784	1088.423099395716	1351.163510735169	521.720111986728	1066.676480154885	1417.899253476761	711.956552540527	988.267172050013	1487.181862873786	556.159283751054	1047.789057908276	924.752015982132	663.321590320412	978.899525679571	964.098904611750	399.086408544244	1061.664729749073	721.411168809914	612.213055761322	990.915990111781	611.302549373278	684.919231034937	1039.029707291720	560.180773410165	585.165898468203	1032.969598863117	467.621474411688	586.916575893971	1054.650549295946	770.725129242177	413.998318028544	991.797830727502	645.323218043351	337.267989768398	1092.993333375334	580.461618965586	392.552424734912	1111.481733678759	513.116915917388	388.239492522539	1091.380607893920	441.645136067008	370.391845187186	1017.203533442256	323.995091932659	302.110459252861	1091.343913779533	211.713805225313	351.351175327470	986.896323156917	382.721975232367	599.932480292516	916.691409696313	291.205254741048	681.666922840711	914.047516176851	195.935651812268	608.952570184063	747.574518265367	45.913717053486	619.564951190750	925.069674182510	95.846411133865	610.831766328440	846.631684627699	37.766351385331	670.571202322613	1046.216414874874	39.711857669855	608.688267710441	988.991337831254	39.944175279979	367.130233299021	1067.794190535993	43.812932301984	291.938691426414	1143.849203263499	112.341956271036	323.635078625142	1275.978516807634	73.364421702659	302.008640480638	761.237582394876	1130.196681379964	342.334799510745	698.896055838865	889.301810250243	431.122191310095	1315.181241590004	1200.065397907822	747.991249448618	1408.007913717504	1395.568295355738	627.023427319176	
72	14.231428571429	803.862278989873	1003.991542521033	598.241497006399	947.179185853817	1432.895768116147	396.562539316590	1088.041300076842	1351.632900789122	516.938660864536	1066.018913432214	1418.767976739376	707.034130797752	986.508815632423	1487.291617955224	551.386932132284	1048.583949149562	925.092577274358	660.549204333061	980.059355139449	962.997619412418	396.114225929127	1060.962883240960	720.855506715926	610.787732553660	988.859863387211	611.514842794025	683.858670526965	1036.591894438513	559.590124617727	584.601974505755	1029.533059110626	467.184805793116	586.709309108821	1054.666774433975	767.927391933227	412.162214636855	989.942828796611	643.018500862048	336.718354487594	1090.696478782118	577.737622103925	392.026312105021	1107.855789296808	510.573252485357	388.278423161452	1088.357444633217	439.462817499252	370.610518222353	1014.373537505953	321.025571467772	304.145355427014	1089.232742839575	209.623339609789	353.738026810070	983.346847204127	382.513439150673	599.694772968007	912.859923246868	291.355224184244	681.579194452536	910.041658945961	195.933368847585	608.963459777257	743.309491426376	46.144861929005	619.612934447926	920.819673463638	95.873450455949	610.882370459112	842.346199043940	37.830504113323	670.578115785288	1041.935413847611	39.636639074047	608.725761749438	986.980966303954	39.493043147964	372.140856426944	1065.010931129157	41.908214092653	296.125036855551	1142.111905226982	109.369896505442	326.724489913518	1273.459467134833	68.528770090906	304.104563882290	761.610224241389	1128.926656374694	337.524842540998	697.918812666264	888.054279874068	425.360652674618	1315.846788441178	1202.868079685929	742.092046632611	1405.445367915225	1399.514142948835	620.499342006874	
73	14.252857142857	804.726110716266	1003.659793992063	594.635360916033	946.560169908856	1432.039462413456	391.400745982830	1087.859117419165	1351.929603683016	512.076105900439	1065.278504132305	1419.552331286852	701.974652197716	984.854398193293	1487.275010342289	546.327757996788	1049.455325800918	925.297416741976	657.691694206865	981.380055478827	961.760880335654	393.029183787692	1060.628061659887	720.272503021488	609.135898433038	987.272677015528	611.634337195523	682.504230724899	1034.714804228150	558.962931223806	583.742291163005	1026.730065118084	466.615529506813	586.227087889780	1055.024290790547	765.163853677695	410.175474317069	988.580543676887	640.822679109640	335.896115531259	1088.892769557160	575.139331990622	391.287833170133	1104.751228121242	508.044793069832	388.022224881000	1085.619001519178	437.198823100616	370.523864867967	1011.426686398284	318.329021335493	305.677443767036	1086.369746378948	207.436643667556	355.657365160815	980.267032887158	382.215449964551	599.246451516377	909.323969255658	291.590042547749	681.326945272303	906.262718327605	195.957714227294	608.910258544819	739.092695523362	46.572965948578	619.654102988683	916.657241173601	95.931479272697	610.925611159236	838.097204654097	37.988373624407	670.568111353091	1037.678552461828	39.527198424410	608.769585004157	983.434458101854	39.237309949455	376.366019283965	1060.744670413911	40.199243619512	299.562047829343	1139.055846139037	106.354841764817	329.269907916767	1269.596476135670	63.362127183640	305.604432185450	763.247659474195	1126.973006354411	331.572339402819	698.642441529600	885.679331506085	417.433270496145	1316.051655298551	1204.934147063604	736.546893774109	1403.000874795863	1402.357011017880	614.178675102746	
74	14.274285714286	805.571071872139	1003.291003271689	590.789214987483	946.276537078000	1431.113348000957	386.019409849232	1087.862744151123	1352.144339083956	507.178128780771	1064.508748053937	1420.318300817990	696.835518109469	983.344945030149	1487.235742321878	541.057994837831	1050.335684705858	925.443596350800	654.713899318500	982.781244427398	960.566568643206	389.807457295155	1060.522533905689	719.727012264832	607.234678981218	986.013939667332	611.745386423611	680.866470134832	1033.247587315047	558.360475009961	582.600744734039	1024.406213584357	466.003236340718	585.490843530468	1055.671101536437	762.672570862035	407.996278787536	987.756493049152	638.917366928526	334.698752572158	1087.619192147898	572.860469694009	390.250697921925	1102.257153498343	505.746720696590	387.411671381539	1083.309934344651	435.049639512229	370.094028828724	1008.674241468556	316.031653781011	306.537963487911	1083.104970460111	205.323533503746	357.031201730432	977.542912625058	381.912183273196	598.612792919900	905.999772973417	291.962448513191	680.924863452559	902.672026560023	196.058067560952	608.804119866540	734.927861533107	47.222650434246	619.693788429757	912.590201144800	96.028780511785	610.967025033704	833.888632085819	38.253751725286	670.546424969570	1033.444813770022	39.385662001159	608.817524789089	978.887683061889	39.105236860920	379.604359535102	1055.598516684966	38.752952387032	302.127821450087	1135.120372555860	103.553986900385	331.197751356360	1264.925870789614	58.381260390830	306.573113947330	766.046987568937	1124.536052643013	324.592990259549	701.154469000049	882.372811047219	407.514501719294	1315.863084889396	1206.360422044605	731.431883149324	1400.870828686078	1404.169956575420	608.119561573467	
75	14.295714285714	806.354339676355	1003.007121383211	586.703474065144	946.296813013976	1430.256347872697	380.507594644298	1088.028006035615	1352.360233299685	502.287321092704	1063.753213428422	1421.115307826493	691.673098484555	982.010364199404	1487.265081673645	535.661487738807	1051.148914496710	925.607543173763	651.581598510497	984.194948901241	959.566258669302	386.418820225610	1060.488635115168	719.278630507124	605.086652290490	984.914325223169	611.932571190095	678.977434626316	1032.015971701452	557.842718499810	581.219601599652	1022.382419951232	465.439686606132	584.549431168073	1056.557801165395	760.660647409952	405.602866390489	987.503854858366	637.430490473884	333.074049989040	1086.904753332734	571.042321304306	388.868542401613	1100.438423046777	503.832274411304	386.435661037583	1081.533635594036	433.164207087237	369.330948355128	1006.346562487999	314.223193592191	306.665606021343	1079.725125427252	203.429446219887	357.860252418615	975.044140861186	381.687475627638	597.838424100046	902.789513661201	292.516748273243	680.399186864802	899.221550101487	196.278729701421	608.661881993124	730.816740312236	48.107427417943	619.735594205127	908.620446639756	96.171789278069	611.011835026479	829.722161732669	38.635691263257	670.518791624712	1029.231918560507	39.216186451014	608.867171182351	973.809469370681	39.054105535493	381.810102452110	1050.074747831773	37.617855710433	303.821596960226	1130.685849969832	101.167734747953	332.508189841613	1259.887993278757	53.985139771033	307.096209501460	769.850514112410	1121.841870172309	316.736295845628	705.498302892097	878.376456001217	395.820268095700	1315.350710965946	1207.270260311486	726.792835709751	1399.270698370840	1405.044455295557	602.366870489185	
76	14.317142857143	807.038770195599	1002.900525833758	582.363325721869	946.583145659753	1429.580787480567	374.944615065701	1088.321290084130	1352.639397894751	497.440396595898	1063.033307024849	1421.967765905268	686.538161126886	980.864263613135	1487.427135345532	530.218977893318	1051.818695448784	925.852488949072	648.268166965046	985.576052958820	958.860412103190	382.834166985494	1060.370208872790	718.970872136052	602.720138699299	983.797147799066	612.265785297079	676.885019593490	1030.844468586231	557.457241663418	579.662099269290	1020.476958104218	465.003269754967	583.470105525339	1057.635553417767	759.260512541227	402.996182045205	987.815051408142	636.411457322271	331.028981589220	1086.746336060508	569.746077905500	387.141220061079	1099.312401999478	502.369180982135	385.131871687169	1080.329047372561	431.621479857306	368.285765682078	1004.560300833100	312.932088474709	306.109567850759	1076.429071645286	201.846186418495	358.213093440174	972.638300198583	381.609709675107	596.978368366027	899.593487165426	293.278788455241	679.781765610233	895.858573347578	196.649657010462	608.501774149213	726.757879706395	49.223287930987	619.779818523651	904.741969162454	96.363358516967	611.063259701469	825.596277086324	39.135775319540	670.490447740011	1025.035922159084	39.025209521375	608.916178632346	968.563014248145	39.057083425979	383.070367304752	1044.540436289097	36.808790695584	304.742901170196	1126.046943894424	99.308826004024	333.269588005358	1254.802532683527	50.409669544955	307.275554514322	774.457152765674	1119.112404423812	308.173190811754	711.666544977860	873.950639369469	382.594536224270	1314.579540707614	1207.802934333190	722.643801191500	1398.421651073389	1405.078882338183	596.956967078381	
